<svg xmlns="http://www.w3.org/2000/svg" fill="none" width="21" height="31" viewBox="0 0 26 31"><path fill-rule="evenodd" clip-rule="evenodd" d="M19.117.812a1 1 0 0 1 1.09.217c.909.909 2.097 2.878 3.059 5.918.971 3.07 1.734 7.297 1.734 12.79a1 1 0 0 1-1 1h-3.5v9a1 1 0 0 1-2 0v-28a1 1 0 0 1 .617-.925ZM20.5 18.736h2.491c-.086-4.816-.786-8.512-1.632-11.185-.278-.88-.57-1.643-.859-2.296v13.481ZM6.5.736a1 1 0 0 1 1 1v28a1 1 0 1 1-2 0v-28a1 1 0 0 1 1-1Z" fill="#fff"/><path fill-rule="evenodd" clip-rule="evenodd" d="M2 .736a1 1 0 0 1 1 1v5.5c0 .557.192 1.316.7 1.917.48.566 1.314 1.083 2.8 1.083a1 1 0 1 1 0 2c-2.015 0-3.43-.732-4.326-1.791A5.068 5.068 0 0 1 1 7.236v-5.5a1 1 0 0 1 1-1Z" fill="#fff"/><path fill-rule="evenodd" clip-rule="evenodd" d="M11 .736a1 1 0 0 0-1 1v5.5a3.07 3.07 0 0 1-.7 1.917c-.48.566-1.315 1.083-2.8 1.083a1 1 0 0 0 0 2c2.014 0 3.43-.732 4.326-1.791A5.068 5.068 0 0 0 12 7.236v-5.5a1 1 0 0 0-1-1Z" fill="#fff"/></svg>