<svg xmlns="http://www.w3.org/2000/svg" fill="none" width="30" height="32" viewBox="0 0 30 32"><g clip-path="url(#a)" fill="#fff"><path d="M21.276 19.21c-1.706 0-3.088 1.478-3.088 3.3 0 1.825 1.383 3.302 3.088 3.302 1.706 0 3.088-1.478 3.088-3.302 0-1.823-1.383-3.3-3.088-3.3Zm0 5.013c-.884 0-1.6-.767-1.6-1.711 0-.947.716-1.712 1.6-1.712.884 0 1.602.765 1.602 1.712 0 .944-.718 1.71-1.602 1.71ZM12.107.726c-1.76 0-3.187 1.525-3.187 3.407 0 1.883 1.426 3.407 3.187 3.407 1.76 0 3.187-1.524 3.187-3.407 0-1.882-1.427-3.407-3.187-3.407Zm0 5.476c-1.07 0-1.936-.926-1.936-2.07 0-1.142.866-2.068 1.935-2.068 1.07 0 1.936.926 1.936 2.069 0 1.143-.866 2.07-1.936 2.07ZM8.727 18.347c-1.294 0-2.341 1.12-2.341 2.503 0 1.382 1.047 2.502 2.34 2.502 1.295 0 2.342-1.12 2.342-2.502 0-1.383-1.047-2.503-2.341-2.503Zm-.227 1.89c-.459 0 1.158 1.103 1.158.613s-1.617.386-1.158.386c.459 0 1.057-.877 1.057-.387s-.598-.613-1.057-.613ZM19 10.499s3.04-.838 6.178 1.494c.907.76 1.765 1.336 1.152 2.122-.343.34-.637.657-1.716-.524-1.054-.76-2.72-1.898-5.614-1.441-1.128.236-1.961.55-3.556 2.149-1.593 1.598-3.972 2.725-6.497 2.49-2.525-.236-3.849-1.259-5.246-2.543-.294-.42-.294-.865-.123-1.127.171-.262.833-.524 1.201-.131.368.393 2.109 1.965 3.825 2.07 1.716.104 3.433.21 5.737-1.966 2.306-2.174 3.458-2.331 4.66-2.593Z"/><mask id="b"><path d="M29.146 27.552V8.894c0-.579-.374-.65-.524-.656h-.506c-.493 0-.536.557-.538.74V9.037c.002 3.608.01 18.253-.002 18.54a2.681 2.681 0 0 1-.82 1.887c-.809.695-1.618.603-1.618.603s-20.177 0-20.655-.027c-.38-.065-1.042-.21-1.606-1.009-.564-.8-.453-1.847-.453-1.847V9.05c0-.838-.675-.812-.675-.812h-.307c-.536 0-.585.588-.588.776v18.537c0 1.337.453 2.398 1.548 3.337 1.094.939 2.375.857 2.375.857s19.723 0 20.581-.003c.859-.002 1.986-.416 2.916-1.555.93-1.139.872-2.636.872-2.636Z"/></mask><path d="M29.146 27.552V8.894c0-.579-.374-.65-.524-.656h-.506c-.493 0-.536.557-.538.74V9.037c.002 3.608.01 18.253-.002 18.54a2.681 2.681 0 0 1-.82 1.887c-.809.695-1.618.603-1.618.603s-20.177 0-20.655-.027c-.38-.065-1.042-.21-1.606-1.009-.564-.8-.453-1.847-.453-1.847V9.05c0-.838-.675-.812-.675-.812h-.307c-.536 0-.585.588-.588.776v18.537c0 1.337.453 2.398 1.548 3.337 1.094.939 2.375.857 2.375.857s19.723 0 20.581-.003c.859-.002 1.986-.416 2.916-1.555.93-1.139.872-2.636.872-2.636Z"/><path d="M29.146 27.552h-20v.387l.015.387 19.985-.774Zm-.524-19.314.71-19.987-.355-.013h-.355v20Zm-1.044.74-20-.15v.149h20Zm0 .06h-20v.007l20-.007Zm-.002 18.54L7.591 26.82v.012l19.986.746Zm-.82 1.887L39.794 44.63l.431-.372.41-.395-13.88-14.398Zm-1.618.603 2.26-19.872-1.127-.128h-1.133v20ZM4.483 30.04l-3.395 19.71 1.134.195 1.148.064 1.113-19.969Zm-1.606-1.009L-13.467 40.56l.004.007 16.34-11.534Zm-.453-1.847 19.89 2.098.11-1.046v-1.052h-20ZM1.749 8.239v20h.388l.388-.015-.776-19.985Zm-.895.776-19.998-.288-.002.144v.144h20ZM2.402 30.89l-13.026 15.177L2.403 30.89Zm2.375.857v-20h-.643l-.64.04 1.283 19.96Zm23.497-1.558 15.49 12.653.005-.008-15.495-12.645Zm20.872-2.636V8.894h-40v18.658h40Zm0-18.658c0-4.97-1.859-11.42-7.618-16.084-4.89-3.96-10.03-4.482-12.196-4.559l-1.42 39.975a19.462 19.462 0 0 1-11.56-4.333c-5.535-4.483-7.206-10.607-7.206-15h40ZM28.622-11.762h-.506v40h.506v-40Zm-.506 0a20.47 20.47 0 0 0-12.283 4.083A20.526 20.526 0 0 0 9.414.355a21.134 21.134 0 0 0-1.835 8.473l39.999.298c-.006.733-.014 3.914-1.667 7.598a19.474 19.474 0 0 1-6.096 7.611 19.53 19.53 0 0 1-11.699 3.903v-40ZM7.578 8.978V9.028h40V8.977h-40Zm0 .05V9.038h40V9.027h-40Zm0 .017.004 10.512a8367.03 8367.03 0 0 1-.002 7.252c-.002.788-.006.45.01.01l39.972 1.517c.02-.512.018-1.37.018-1.451l.002-1.807V19.55c0-4.15-.003-8.72-.004-10.52l-40 .015Zm.012 17.787c.05-1.349.384-7.042 5.285-11.766l27.761 28.797c6.396-6.165 6.852-13.535 6.927-15.54L7.59 26.832ZM13.716 14.3a17.512 17.512 0 0 1 7.807-3.844 17.964 17.964 0 0 1 4.628-.362 19.039 19.039 0 0 1 1.172.094c.012 0 .025.002.037.004l.019.002c.01 0 .019.002-2.241 19.874-2.26 19.872-2.25 19.873-2.241 19.874l.018.002a4.325 4.325 0 0 0 .114.012 18.772 18.772 0 0 0 1.169.09c.481.024 1.011.033 1.583.019a22.044 22.044 0 0 0 3.983-.467 22.487 22.487 0 0 0 10.03-4.968L13.717 14.3Zm11.422 15.768v-20h-3.156a15692.778 15692.778 0 0 1-14.032-.011l-2.357-.007c-1.071-.005-.613-.012.002.022L3.37 50.01c.97.054 7.17.052 11.606.054l6.997.003h3.164v-20ZM7.877 10.33c.432.075 2.526.427 4.938 1.654a17.617 17.617 0 0 1 6.401 5.514l-32.679 23.067C-8.468 47.64-1.586 49.29 1.088 49.75l6.789-39.42Zm11.344 7.174c2.348 3.33 2.908 6.509 3.08 7.954a16.587 16.587 0 0 1 .049 3.44 18.299 18.299 0 0 1-.034.36l-.002.012c0 .006 0 .012-19.89-2.086s-19.89-2.092-19.891-2.086a.58.58 0 0 1-.002.012l-.002.024a6.168 6.168 0 0 0-.015.149 20.523 20.523 0 0 0-.054.678 23.432 23.432 0 0 0 .117 4.197c.257 2.169 1.043 6.271 3.956 10.4L19.22 17.505Zm3.203 9.68V9.05h-40v18.134h40Zm0-18.134c0-6.89-3.412-14.004-10.265-17.999a20.692 20.692 0 0 0-11.136-2.8l-.025.001c-.012 0-.024 0 .751 19.986.776 19.985.763 19.985.751 19.986h-.024l-.05.002a15.247 15.247 0 0 1-.3.008A19.374 19.374 0 0 1-7.986 25.61a19.386 19.386 0 0 1-7.239-7.434 19.028 19.028 0 0 1-2.351-9.124h40ZM1.748-11.76h-.307v40h.307v-40Zm-.307 0c-4.037 0-8.32 1.192-12.061 3.906A20.562 20.562 0 0 0-17.172.09a21.166 21.166 0 0 0-1.972 8.637l39.996.577c-.011.758-.045 3.996-1.784 7.719a19.438 19.438 0 0 1-6.2 7.5 19.477 19.477 0 0 1-11.426 3.716v-40ZM-19.146 9.015V27.552h40V9.016h-40Zm0 18.537c0 7.063 2.92 13.706 8.522 18.514l26.052-30.353c1.294 1.11 2.854 2.87 3.993 5.372a15.716 15.716 0 0 1 1.433 6.467h-40Zm8.523 18.515a23.586 23.586 0 0 0 10.48 5.169 23.604 23.604 0 0 0 5.087.51 21.335 21.335 0 0 0 .991-.034l.063-.004.03-.002h.016c.008-.001.016-.002-1.267-19.96-1.283-19.96-1.276-19.96-1.268-19.96l.015-.001a3.107 3.107 0 0 1 .092-.006 24.11 24.11 0 0 1 .371-.018 18.504 18.504 0 0 1 1.584.008c.737.038 1.607.13 2.571.334 1.88.398 4.642 1.34 7.285 3.609l-26.05 30.355Zm15.4-14.321v20H14.747l10.668-.003-.113-40h-.33l-.752.001a21913.058 21913.058 0 0 1-9.475.001H4.777v20Zm20.638 19.997c7.104-.02 13.8-3.335 18.348-8.902L12.786 17.535c2.687-3.29 7.129-5.777 12.516-5.792l.113 40Zm18.354-8.91c3.245-3.976 4.434-8.095 4.913-10.529a24.742 24.742 0 0 0 .464-4.58 21.806 21.806 0 0 0-.015-.934c0-.006 0-.012-19.985.762s-19.986.768-19.986.761v-.012a15.589 15.589 0 0 1-.01-.38 17.888 17.888 0 0 1 .023-1.264c.033-.577.105-1.28.262-2.076.275-1.4 1.028-4.2 3.344-7.039l30.99 25.291Z" mask="url(#b)"/></g><defs><clipPath id="a"><path fill="#fff" transform="translate(.5 .736)" d="M0 0h29v31H0z"/></clipPath></defs></svg>