<svg fill="none" xmlns="http://www.w3.org/2000/svg" width="26" height="29" viewBox="0 0 26 29"><path d="M25.344 1.503c-.1-.45-.48-.767-.912-.767h-.005c-4.938.033-16.945.916-21.793 8.38C.116 12.994-.101 18.03 1.99 24.081c.016.047.048.08.07.122-.747 1.973-1.037 3.286-1.044 3.323-.11.54.214 1.072.72 1.188a.88.88 0 0 0 .197.022c.433 0 .822-.32.916-.79.02-.102 2.409-10.373 10.854-16.378.431-.306.547-.927.26-1.387-.288-.46-.87-.585-1.3-.277-4.79 3.405-7.739 8.008-9.473 11.656-1.242-4.578-.916-8.377.986-11.305 3.743-5.764 12.622-7.154 17.982-7.448-1.153 1.801-2.413 5.103-2.413 10.93 0 3.12-.83 5.521-2.465 7.14-2.62 2.59-6.88 2.833-9.993 2.583-.518-.045-.967.371-1.006.922-.04.55.347 1.03.863 1.072.623.051 1.29.082 1.981.082 3.17 0 6.87-.663 9.43-3.194 2.034-2.01 3.065-4.906 3.065-8.605 0-9.099 3.216-11.096 3.232-11.105.39-.209.594-.677.492-1.129Z" fill="#fff"/></svg>