<svg xmlns="http://www.w3.org/2000/svg" fill="none" width="33" height="34" viewBox="0 0 33 34"><ellipse cx="21.704" cy="12.066" rx="1.087" ry="1.085" fill="#fff"/><ellipse cx="10.831" cy="12.066" rx="1.087" ry="1.085" fill="#fff"/><ellipse cx="10.831" cy="25.088" rx="1.087" ry="1.085" fill="#fff"/><ellipse cx="16.268" cy="27.258" rx="1.087" ry="1.085" fill="#fff"/><ellipse cx="7.569" cy="18.511" rx="1.087" ry="1.085" fill="#fff"/><ellipse cx="24.966" cy="18.511" rx="1.087" ry="1.085" fill="#fff"/><ellipse cx="21.704" cy="25.088" rx="1.087" ry="1.085" fill="#fff"/><mask id="a" fill="#fff"><path fill-rule="evenodd" clip-rule="evenodd" d="M21.422 29.794a1.058 1.058 0 0 1 1.216.197l1.826 1.875a.682.682 0 0 0 .977-.952l-1.357-1.393c-.426-.437-.361-1.15.098-1.551 2.642-2.314 4.318-5.765 4.318-9.62 0-6.966-5.477-12.614-12.232-12.614-6.756 0-12.232 5.648-12.232 12.615 0 3.814 1.641 7.233 4.236 9.546.452.404.513 1.11.09 1.545l-1.434 1.472a.682.682 0 0 0 .976.951l1.88-1.93a1.058 1.058 0 0 1 1.226-.191 11.878 11.878 0 0 0 5.258 1.221c1.841 0 3.587-.42 5.154-1.17Zm-5.154-.23c6.005 0 10.873-5.02 10.873-11.213S22.273 7.138 16.268 7.138c-6.005 0-10.873 5.02-10.873 11.213s4.868 11.213 10.873 11.213Zm-.76-11.53v-7.357a.781.781 0 0 1 1.563 0v8.182c0 .443-.36.803-.803.803a.76.76 0 0 1-.76-.76V18.035Z"/></mask><path fill-rule="evenodd" clip-rule="evenodd" d="M21.422 29.794a1.058 1.058 0 0 1 1.216.197l1.826 1.875a.682.682 0 0 0 .977-.952l-1.357-1.393c-.426-.437-.361-1.15.098-1.551 2.642-2.314 4.318-5.765 4.318-9.62 0-6.966-5.477-12.614-12.232-12.614-6.756 0-12.232 5.648-12.232 12.615 0 3.814 1.641 7.233 4.236 9.546.452.404.513 1.11.09 1.545l-1.434 1.472a.682.682 0 0 0 .976.951l1.88-1.93a1.058 1.058 0 0 1 1.226-.191 11.878 11.878 0 0 0 5.258 1.221c1.841 0 3.587-.42 5.154-1.17Zm-5.154-.23c6.005 0 10.873-5.02 10.873-11.213S22.273 7.138 16.268 7.138c-6.005 0-10.873 5.02-10.873 11.213s4.868 11.213 10.873 11.213Zm-.76-11.53v-7.357a.781.781 0 0 1 1.563 0v8.182c0 .443-.36.803-.803.803a.76.76 0 0 1-.76-.76V18.035Z" fill="#fff"/><path d="m9.784 29.935 2.865 2.791-2.865-2.79Zm1.226-.191 1.765-3.59-1.765 3.59Zm-3.106 2.122L5.04 29.075l2.865 2.79Zm-.976-.952 2.865 2.791-2.865-2.79Zm17.156-1.393-2.865 2.79 2.865-2.79Zm.098-1.551-2.635-3.01 2.635 3.01Zm-15.91-.073L5.61 30.883l2.662-2.986Zm.09 1.545L5.496 26.65l2.866 2.79Zm17.079 1.472 2.866-2.79-2.866 2.79Zm-.977.951 2.866-2.79-2.866 2.79Zm-1.825-1.874-2.866 2.79 2.866-2.79Zm-1.217-.197-1.73-3.606 1.73 3.606Zm-1.65 2.987 1.827 1.875 5.731-5.581-1.826-1.875-5.731 5.581Zm8.535-4.657L26.95 26.73l-5.731 5.58 1.356 1.394 5.732-5.581Zm-1.49 2.855c3.49-3.057 5.683-7.596 5.683-12.628h-8c0 2.676-1.16 5.039-2.953 6.61l5.27 6.018ZM32.5 18.35c0-9.06-7.152-16.615-16.232-16.615v8c4.431 0 8.232 3.74 8.232 8.615h8ZM16.268 1.736C7.188 1.736.036 9.292.036 18.351h8c0-4.875 3.8-8.615 8.232-8.615v-8ZM.036 18.351c0 4.98 2.147 9.477 5.574 12.532l5.324-5.971C9.172 23.34 8.036 21 8.036 18.35h-8Zm5.46 8.3-1.434 1.473 5.731 5.581 1.434-1.473-5.73-5.581Zm5.274 8.005 1.88-1.93-5.732-5.581-1.88 1.93 5.732 5.581Zm-1.525-1.322a15.878 15.878 0 0 0 7.023 1.631v-8a7.879 7.879 0 0 1-3.493-.81l-3.53 7.178Zm7.023 1.631c2.456 0 4.792-.56 6.884-1.564l-3.46-7.213c-1.041.5-2.198.777-3.424.777v8Zm0-1.401c8.33 0 14.873-6.928 14.873-15.213h-8c0 4.1-3.192 7.213-6.873 7.213v8ZM31.14 18.35c0-8.285-6.544-15.213-14.873-15.213v8c3.68 0 6.873 3.112 6.873 7.213h8ZM16.268 3.138c-8.33 0-14.873 6.928-14.873 15.213h8c0-4.1 3.192-7.213 6.873-7.213v-8ZM1.395 18.35c0 8.285 6.544 15.213 14.873 15.213v-8c-3.68 0-6.873-3.113-6.873-7.213h-8Zm11.676-.317v.543h8v-.543h-8Zm0 .543v.282h8v-.282h-8Zm6.437.326v-.326h-8v.326h8Zm0-.326v-.543h-8v.543h8Zm0-.543v-3.798h-8v3.798h8Zm0-3.798v-3.559h-8v3.56h8Zm-6.437-3.559v3.56h8v-3.56h-8Zm0 3.56v3.797h8v-3.798h-8Zm3.219-8.341a4.781 4.781 0 0 0-4.782 4.781h8a3.219 3.219 0 0 1-3.218 3.219v-8Zm-3.22 12.963a3.197 3.197 0 0 1 3.198-3.197v8a4.803 4.803 0 0 0 4.803-4.803h-8Zm-.42 13.867a2.943 2.943 0 0 1-3.405.608l3.53-7.18c-1.826-.898-4.227-.683-5.857.99l5.731 5.582Zm-8.588 1.93a4.681 4.681 0 0 0 6.708 0l-5.731-5.581a3.318 3.318 0 0 1 4.754 0l-5.731 5.581Zm0-6.532a4.682 4.682 0 0 0 0 6.532l5.731-5.581a3.318 3.318 0 0 1 0 4.63l-5.731-5.581ZM26.95 26.73c1.343 1.378.944 3.305-.133 4.248l-5.27-6.018c-1.995 1.747-2.523 5.097-.328 7.35l5.731-5.58ZM16.29 13.895a3.219 3.219 0 0 1-3.22-3.219h8c0-2.64-2.14-4.781-4.78-4.781v8ZM5.61 30.883c-1.064-.948-1.447-2.863-.114-4.232l5.731 5.581c2.18-2.238 1.675-5.565-.293-7.32l-5.324 5.97Zm22.697 3.773a4.682 4.682 0 0 0 0-6.532l-5.732 5.581a3.318 3.318 0 0 1 0-4.63l5.732 5.581Zm-6.708 0a4.681 4.681 0 0 0 6.708 0l-5.732-5.581a3.318 3.318 0 0 1 4.755 0L21.6 34.656Zm-5.331-18.994a3.24 3.24 0 0 1 3.24 3.24h-8a4.76 4.76 0 0 0 4.76 4.76v-8ZM25.504 27.2c-1.616-1.66-3.992-1.885-5.813-1.012l3.46 7.213a2.943 2.943 0 0 1-3.378-.62l5.731-5.581Z" fill="#fff" mask="url(#a)"/><path fill="#fff" d="M15.5 6.736v-4H17v4z"/><rect x="8.5" y="2.736" width="15.5" height="1.5" rx=".75" fill="#fff"/></svg>